<svg xmlns="http://www.w3.org/2000/svg" width="196.144" height="46.591" viewBox="0 0 196.144 46.591"><defs><style>.a{fill:#222239;}.b{fill:#fff;}</style></defs><g transform="translate(9377 175)"><path class="a" d="M10.7-19.992A9.683,9.683,0,0,1,16.954-18a9.1,9.1,0,0,1,3.206,5.376H15.092a4.65,4.65,0,0,0-1.722-2.156,4.813,4.813,0,0,0-2.758-.784,4.2,4.2,0,0,0-3.388,1.54A6.209,6.209,0,0,0,5.936-9.912a6.153,6.153,0,0,0,1.288,4.1,4.217,4.217,0,0,0,3.388,1.526,4.813,4.813,0,0,0,2.758-.784A4.67,4.67,0,0,0,15.092-7.2H20.16a9.146,9.146,0,0,1-3.206,5.362,9.638,9.638,0,0,1-6.258,2A9.874,9.874,0,0,1,5.628-1.106a8.648,8.648,0,0,1-3.374-3.57,11.213,11.213,0,0,1-1.19-5.236,11.213,11.213,0,0,1,1.19-5.236,8.648,8.648,0,0,1,3.374-3.57A9.874,9.874,0,0,1,10.7-19.992Zm19.46,4.172a8.786,8.786,0,0,1,4.158.966A7.082,7.082,0,0,1,37.2-12.068a8.367,8.367,0,0,1,1.05,4.256A8.367,8.367,0,0,1,37.2-3.556,7.082,7.082,0,0,1,34.314-.77,8.786,8.786,0,0,1,30.156.2,8.869,8.869,0,0,1,25.984-.77a7.06,7.06,0,0,1-2.9-2.786,8.367,8.367,0,0,1-1.05-4.256,8.367,8.367,0,0,1,1.05-4.256,7.06,7.06,0,0,1,2.9-2.786A8.87,8.87,0,0,1,30.156-15.82Zm0,4.144a3.051,3.051,0,0,0-2.31.994,4.027,4.027,0,0,0-.938,2.87,3.975,3.975,0,0,0,.938,2.856,3.072,3.072,0,0,0,2.31.98,3.027,3.027,0,0,0,2.3-.98,4.013,4.013,0,0,0,.924-2.856,4.066,4.066,0,0,0-.924-2.87A3.007,3.007,0,0,0,30.156-11.676Zm16.52-4.144a5.656,5.656,0,0,1,3.08.812A4.715,4.715,0,0,1,51.632-12.8V-20.72H56.42V0H51.632V-2.828A4.715,4.715,0,0,1,49.756-.616,5.656,5.656,0,0,1,46.676.2,6.328,6.328,0,0,1,43.218-.77,6.609,6.609,0,0,1,40.81-3.556a9.656,9.656,0,0,1-.882-4.256,9.633,9.633,0,0,1,.882-4.27,6.625,6.625,0,0,1,2.408-2.772A6.328,6.328,0,0,1,46.676-15.82Zm1.54,4.2a3.225,3.225,0,0,0-2.478,1.008,3.952,3.952,0,0,0-.938,2.8,3.952,3.952,0,0,0,.938,2.8A3.225,3.225,0,0,0,48.216-4,3.237,3.237,0,0,0,50.694-5.04a3.9,3.9,0,0,0,.966-2.772,3.891,3.891,0,0,0-.966-2.786A3.259,3.259,0,0,0,48.216-11.62ZM71.6-10.192a4.957,4.957,0,0,1,2.842,1.736A4.752,4.752,0,0,1,75.488-5.4a4.918,4.918,0,0,1-1.694,3.976A7.34,7.34,0,0,1,68.936,0H59.724V-19.8h8.988a7.339,7.339,0,0,1,4.676,1.316,4.518,4.518,0,0,1,1.652,3.752,4.622,4.622,0,0,1-.952,2.982A4.387,4.387,0,0,1,71.6-10.192ZM64.512-11.7h3.136q2.492,0,2.492-2.128T67.592-15.96h-3.08Zm3.416,7.812q2.66,0,2.66-2.184a2.081,2.081,0,0,0-.7-1.666,2.959,2.959,0,0,0-1.988-.6H64.512v4.452ZM77.56-20.02a2.337,2.337,0,0,1,.784-1.806,2.958,2.958,0,0,1,2.072-.714,2.958,2.958,0,0,1,2.072.714,2.337,2.337,0,0,1,.784,1.806,2.306,2.306,0,0,1-.784,1.778,2.958,2.958,0,0,1-2.072.714,2.958,2.958,0,0,1-2.072-.714A2.306,2.306,0,0,1,77.56-20.02Zm5.236,4.4V0H78.008V-15.624Zm8.092,2.94a6.794,6.794,0,0,1,2.31-2.268,5.9,5.9,0,0,1,3.066-.84v5.124H94.892a4.732,4.732,0,0,0-2.954.812,3.262,3.262,0,0,0-1.05,2.744V0H86.1V-15.624h4.788Zm13.328-3.136a5.656,5.656,0,0,1,3.08.812,4.715,4.715,0,0,1,1.876,2.212V-20.72h4.788V0h-4.788V-2.828A4.715,4.715,0,0,1,107.3-.616a5.656,5.656,0,0,1-3.08.812,6.328,6.328,0,0,1-3.458-.966A6.609,6.609,0,0,1,98.35-3.556a9.655,9.655,0,0,1-.882-4.256,9.633,9.633,0,0,1,.882-4.27,6.625,6.625,0,0,1,2.408-2.772A6.328,6.328,0,0,1,104.216-15.82Zm1.54,4.2a3.225,3.225,0,0,0-2.478,1.008,3.952,3.952,0,0,0-.938,2.8,3.952,3.952,0,0,0,.938,2.8A3.225,3.225,0,0,0,105.756-4a3.237,3.237,0,0,0,2.478-1.036,3.9,3.9,0,0,0,.966-2.772,3.891,3.891,0,0,0-.966-2.786A3.259,3.259,0,0,0,105.756-11.62Zm17.192-4.2a7.169,7.169,0,0,1,4.746,1.484,6.448,6.448,0,0,1,2.226,3.92h-4.48a2.482,2.482,0,0,0-.882-1.5,2.678,2.678,0,0,0-1.722-.546,1.883,1.883,0,0,0-1.232.35,1.221,1.221,0,0,0-.42.994,1.166,1.166,0,0,0,.77,1.092,12.278,12.278,0,0,0,2.422.728,24.052,24.052,0,0,1,2.94.854A4.85,4.85,0,0,1,129.3-7.028a3.907,3.907,0,0,1,.84,2.632,4.036,4.036,0,0,1-.728,2.38,4.793,4.793,0,0,1-2.1,1.624A8.206,8.206,0,0,1,124.068.2,8.364,8.364,0,0,1,119-1.2a5.907,5.907,0,0,1-2.324-4h4.62a2.079,2.079,0,0,0,.854,1.54,3.215,3.215,0,0,0,1.918.532,1.786,1.786,0,0,0,1.232-.378,1.273,1.273,0,0,0,.42-.994,1.2,1.2,0,0,0-.77-1.162,14.158,14.158,0,0,0-2.506-.742,20.039,20.039,0,0,1-2.856-.784,4.715,4.715,0,0,1-1.932-1.358,3.783,3.783,0,0,1-.812-2.562,4.181,4.181,0,0,1,1.6-3.4A6.955,6.955,0,0,1,122.948-15.82Z" transform="translate(-9311 -143)"/><g transform="translate(-9377 -175)"><g transform="translate(0 0)"><ellipse class="a" cx="22" cy="21.5" rx="22" ry="21.5" transform="translate(0)"/><g transform="translate(10.625 10.625)"><circle class="b" cx="11" cy="11" r="11" transform="translate(0.375 0.375)"/></g><g transform="translate(18.125 16.25)"><rect class="b" width="25" height="11" transform="translate(-0.125 -0.25)"/></g></g><g transform="translate(8.362 3.525)"><g transform="translate(40.204 4.967)"><path class="a" d="M707.34,521.455a.794.794,0,0,1,0,1.383l-6.192,3.484a.794.794,0,0,1-1.183-.692v-6.967a.794.794,0,0,1,1.183-.692Z" transform="translate(-699.965 -517.87)"/></g><g transform="translate(0 21.908)"><g transform="translate(0 0.38)"><path class="b" d="M465.057,626.191h0a5.5,5.5,0,0,1,0,7.783l-9.389,9.389a5.5,5.5,0,0,1-7.783,0l-3.892-3.892h0l13.281-13.281A5.5,5.5,0,0,1,465.057,626.191Z" transform="translate(-443.993 -624.578)"/></g><g transform="translate(0.178)"><path class="a" d="M455.27,645.754a5.693,5.693,0,0,1-4.038-1.67l-3.007-3.007a1.458,1.458,0,0,1,0-2.062l12.749-12.749a5.718,5.718,0,0,1,8.076,0h0a5.717,5.717,0,0,1,0,8.076l-9.742,9.743A5.693,5.693,0,0,1,455.27,645.754Zm-4.484-5.708,2.242,2.242a3.175,3.175,0,0,0,4.484,0l9.742-9.742a3.171,3.171,0,1,0-4.484-4.484Z" transform="translate(-447.798 -624.596)"/></g></g><g transform="translate(9.109 11.886)"><g transform="translate(0 0.359)"><path class="b" d="M524.219,564.231h0a9.475,9.475,0,0,1,0,13.4l-2.73,2.73a9.475,9.475,0,0,1-13.4,0h0l-6.7-6.7h0l9.43-9.43a9.475,9.475,0,0,1,13.4,0Z" transform="translate(-501.39 -561.456)"/></g><g transform="translate(0.252)"><path class="a" d="M518.818,583.855a9.724,9.724,0,0,1-6.922-2.867l-5.769-5.769a1.633,1.633,0,0,1,0-2.305l8.59-8.59a9.789,9.789,0,1,1,13.844,13.844l-2.82,2.82A9.725,9.725,0,0,1,518.818,583.855Zm-10.253-9.789,5.126,5.126a7.249,7.249,0,0,0,10.253,0l2.82-2.82a7.25,7.25,0,0,0-10.252-10.253Z" transform="translate(-505.65 -561.456)"/></g></g><g transform="translate(12.755)"><g transform="translate(0 0.228)"><path class="b" d="M552.416,489.363h0a9.617,9.617,0,0,1,0,13.6l-6.674,6.674a9.616,9.616,0,0,1-13.6,0h0l-6.8-6.8h0l13.474-13.474A9.617,9.617,0,0,1,552.416,489.363Z" transform="translate(-525.343 -486.546)"/></g><g transform="translate(0.408)"><path class="a" d="M542.772,512.938a9.759,9.759,0,0,1-6.922-2.862l-5.769-5.769a1.633,1.633,0,0,1,0-2.3l12.565-12.565a9.8,9.8,0,0,1,13.844,0h0a9.789,9.789,0,0,1,0,13.844l-6.793,6.794A9.76,9.76,0,0,1,542.772,512.938Zm-10.253-9.785,5.126,5.126a7.258,7.258,0,0,0,10.253,0l6.793-6.793a7.249,7.249,0,0,0,0-10.252h0a7.257,7.257,0,0,0-10.253,0Z" transform="translate(-529.604 -486.575)"/></g></g><g transform="translate(30.853 6.361)"><path class="a" d="M643.227,528.133a.688.688,0,0,0-.687.687.743.743,0,0,1-1.486.022c0-.007,0-.014,0-.022a2.173,2.173,0,1,1,4.346,0,.743.743,0,0,1-1.486,0A.688.688,0,0,0,643.227,528.133Z" transform="translate(-641.054 -526.647)"/></g></g></g></g></svg>